<svg id="mermaid-svg" width="100%" xmlns="http://www.w3.org/2000/svg" xmlns:xlink="http://www.w3.org/1999/xlink" class="classDiagram" style="max-width: 1471.01px; background-color: white;" viewBox="0 0 1471.01171875 862" role="graphics-document document" aria-roledescription="class"><style>#mermaid-svg{font-family:"trebuchet ms",verdana,arial,sans-serif;font-size:16px;fill:#000000;}@keyframes edge-animation-frame{from{stroke-dashoffset:0;}}@keyframes dash{to{stroke-dashoffset:0;}}#mermaid-svg .edge-animation-slow{stroke-dasharray:9,5!important;stroke-dashoffset:900;animation:dash 50s linear infinite;stroke-linecap:round;}#mermaid-svg .edge-animation-fast{stroke-dasharray:9,5!important;stroke-dashoffset:900;animation:dash 20s linear infinite;stroke-linecap:round;}#mermaid-svg .error-icon{fill:#552222;}#mermaid-svg .error-text{fill:#552222;stroke:#552222;}#mermaid-svg .edge-thickness-normal{stroke-width:1px;}#mermaid-svg .edge-thickness-thick{stroke-width:3.5px;}#mermaid-svg .edge-pattern-solid{stroke-dasharray:0;}#mermaid-svg .edge-thickness-invisible{stroke-width:0;fill:none;}#mermaid-svg .edge-pattern-dashed{stroke-dasharray:3;}#mermaid-svg .edge-pattern-dotted{stroke-dasharray:2;}#mermaid-svg .marker{fill:#666;stroke:#666;}#mermaid-svg .marker.cross{stroke:#666;}#mermaid-svg svg{font-family:"trebuchet ms",verdana,arial,sans-serif;font-size:16px;}#mermaid-svg p{margin:0;}#mermaid-svg g.classGroup text{fill:#999;stroke:none;font-family:"trebuchet ms",verdana,arial,sans-serif;font-size:10px;}#mermaid-svg g.classGroup text .title{font-weight:bolder;}#mermaid-svg .nodeLabel,#mermaid-svg .edgeLabel{color:#111111;}#mermaid-svg .edgeLabel .label rect{fill:#eee;}#mermaid-svg .label text{fill:#111111;}#mermaid-svg .labelBkg{background:#eee;}#mermaid-svg .edgeLabel .label span{background:#eee;}#mermaid-svg .classTitle{font-weight:bolder;}#mermaid-svg .node rect,#mermaid-svg .node circle,#mermaid-svg .node ellipse,#mermaid-svg .node polygon,#mermaid-svg .node path{fill:#eee;stroke:#999;stroke-width:1px;}#mermaid-svg .divider{stroke:#999;stroke-width:1;}#mermaid-svg g.clickable{cursor:pointer;}#mermaid-svg g.classGroup rect{fill:#eee;stroke:#999;}#mermaid-svg g.classGroup line{stroke:#999;stroke-width:1;}#mermaid-svg .classLabel .box{stroke:none;stroke-width:0;fill:#eee;opacity:0.5;}#mermaid-svg .classLabel .label{fill:#999;font-size:10px;}#mermaid-svg .relation{stroke:#666;stroke-width:1;fill:none;}#mermaid-svg .dashed-line{stroke-dasharray:3;}#mermaid-svg .dotted-line{stroke-dasharray:1 2;}#mermaid-svg #compositionStart,#mermaid-svg .composition{fill:#666!important;stroke:#666!important;stroke-width:1;}#mermaid-svg #compositionEnd,#mermaid-svg .composition{fill:#666!important;stroke:#666!important;stroke-width:1;}#mermaid-svg #dependencyStart,#mermaid-svg .dependency{fill:#666!important;stroke:#666!important;stroke-width:1;}#mermaid-svg #dependencyStart,#mermaid-svg .dependency{fill:#666!important;stroke:#666!important;stroke-width:1;}#mermaid-svg #extensionStart,#mermaid-svg .extension{fill:transparent!important;stroke:#666!important;stroke-width:1;}#mermaid-svg #extensionEnd,#mermaid-svg .extension{fill:transparent!important;stroke:#666!important;stroke-width:1;}#mermaid-svg #aggregationStart,#mermaid-svg .aggregation{fill:transparent!important;stroke:#666!important;stroke-width:1;}#mermaid-svg #aggregationEnd,#mermaid-svg .aggregation{fill:transparent!important;stroke:#666!important;stroke-width:1;}#mermaid-svg #lollipopStart,#mermaid-svg .lollipop{fill:#eee!important;stroke:#666!important;stroke-width:1;}#mermaid-svg #lollipopEnd,#mermaid-svg .lollipop{fill:#eee!important;stroke:#666!important;stroke-width:1;}#mermaid-svg .edgeTerminals{font-size:11px;line-height:initial;}#mermaid-svg .classTitleText{text-anchor:middle;font-size:18px;fill:#000000;}#mermaid-svg .label-icon{display:inline-block;height:1em;overflow:visible;vertical-align:-0.125em;}#mermaid-svg .node .label-icon path{fill:currentColor;stroke:revert;stroke-width:revert;}#mermaid-svg :root{--mermaid-font-family:"trebuchet ms",verdana,arial,sans-serif;}</style><g><defs><marker id="mermaid-svg_class-aggregationStart" class="marker aggregation class" refX="18" refY="7" markerWidth="190" markerHeight="240" orient="auto"><path d="M 18,7 L9,13 L1,7 L9,1 Z"></path></marker></defs><defs><marker id="mermaid-svg_class-aggregationEnd" class="marker aggregation class" refX="1" refY="7" markerWidth="20" markerHeight="28" orient="auto"><path d="M 18,7 L9,13 L1,7 L9,1 Z"></path></marker></defs><defs><marker id="mermaid-svg_class-extensionStart" class="marker extension class" refX="18" refY="7" markerWidth="190" markerHeight="240" orient="auto"><path d="M 1,7 L18,13 V 1 Z"></path></marker></defs><defs><marker id="mermaid-svg_class-extensionEnd" class="marker extension class" refX="1" refY="7" markerWidth="20" markerHeight="28" orient="auto"><path d="M 1,1 V 13 L18,7 Z"></path></marker></defs><defs><marker id="mermaid-svg_class-compositionStart" class="marker composition class" refX="18" refY="7" markerWidth="190" markerHeight="240" orient="auto"><path d="M 18,7 L9,13 L1,7 L9,1 Z"></path></marker></defs><defs><marker id="mermaid-svg_class-compositionEnd" class="marker composition class" refX="1" refY="7" markerWidth="20" markerHeight="28" orient="auto"><path d="M 18,7 L9,13 L1,7 L9,1 Z"></path></marker></defs><defs><marker id="mermaid-svg_class-dependencyStart" class="marker dependency class" refX="6" refY="7" markerWidth="190" markerHeight="240" orient="auto"><path d="M 5,7 L9,13 L1,7 L9,1 Z"></path></marker></defs><defs><marker id="mermaid-svg_class-dependencyEnd" class="marker dependency class" refX="13" refY="7" markerWidth="20" markerHeight="28" orient="auto"><path d="M 18,7 L9,13 L14,7 L9,1 Z"></path></marker></defs><defs><marker id="mermaid-svg_class-lollipopStart" class="marker lollipop class" refX="13" refY="7" markerWidth="190" markerHeight="240" orient="auto"><circle stroke="black" fill="transparent" cx="7" cy="7" r="6"></circle></marker></defs><defs><marker id="mermaid-svg_class-lollipopEnd" class="marker lollipop class" refX="1" refY="7" markerWidth="190" markerHeight="240" orient="auto"><circle stroke="black" fill="transparent" cx="7" cy="7" r="6"></circle></marker></defs><g class="root"><g class="clusters"></g><g class="edgePaths"><path d="M1011.617,394L1011.617,402.167C1011.617,410.333,1011.617,426.667,1011.617,438C1011.617,449.333,1011.617,455.667,1011.617,458.833L1011.617,462" id="id_VoxelVolume_VoxelChunk_1" class=" edge-thickness-normal edge-pattern-solid relation" style="" marker-end="url(#mermaid-svg_class-dependencyEnd)"></path><path d="M1011.617,660L1011.617,664.167C1011.617,668.333,1011.617,676.667,1011.617,684C1011.617,691.333,1011.617,697.667,1011.617,700.833L1011.617,704" id="id_VoxelChunk_ChunkDims_2" class=" edge-thickness-normal edge-pattern-solid relation" style="" marker-end="url(#mermaid-svg_class-dependencyEnd)"></path><path d="M1211.016,418L1211.016,422.167C1211.016,426.333,1211.016,434.667,1220.637,451.21C1230.259,467.754,1249.502,492.509,1259.123,504.886L1268.745,517.263" id="id_MeshData_MaterialId_3" class=" edge-thickness-normal edge-pattern-solid relation" style="" marker-end="url(#mermaid-svg_class-dependencyEnd)"></path><path d="M1399.137,364L1399.137,377.167C1399.137,390.333,1399.137,416.667,1389.515,442.21C1379.894,467.754,1360.651,492.509,1351.029,504.886L1341.408,517.263" id="id_EditOperation_MaterialId_4" class=" edge-thickness-normal edge-pattern-solid relation" style="" marker-end="url(#mermaid-svg_class-dependencyEnd)"></path><path d="M1211.016,134L1211.016,145.167C1211.016,156.333,1211.016,178.667,1211.016,193C1211.016,207.333,1211.016,213.667,1211.016,216.833L1211.016,220" id="id_MesherPort_MeshData_5" class=" edge-thickness-normal edge-pattern-solid relation" style="" marker-end="url(#mermaid-svg_class-dependencyEnd)"></path><path d="M1011.617,134L1011.617,145.167C1011.617,156.333,1011.617,178.667,1011.617,197C1011.617,215.333,1011.617,229.667,1011.617,236.833L1011.617,244" id="id_RandomGeneratorPort_VoxelVolume_6" class=" edge-thickness-normal edge-pattern-solid relation" style="" marker-end="url(#mermaid-svg_class-dependencyEnd)"></path></g><g class="edgeLabels"><g class="edgeLabel"><g class="label" transform="translate(0, -12)"><foreignObject width="0" height="24"><div style="display: table-cell; white-space: nowrap; line-height: 1.5; max-width: 200px; text-align: center;" xmlns="http://www.w3.org/1999/xhtml" class="labelBkg"><span style=";display: inline-block" class="edgeLabel "></span></div></foreignObject></g></g><g class="edgeLabel"><g class="label" transform="translate(0, -12)"><foreignObject width="0" height="24"><div style="display: table-cell; white-space: nowrap; line-height: 1.5; max-width: 200px; text-align: center;" xmlns="http://www.w3.org/1999/xhtml" class="labelBkg"><span style=";display: inline-block" class="edgeLabel "></span></div></foreignObject></g></g><g class="edgeLabel"><g class="label" transform="translate(0, -12)"><foreignObject width="0" height="24"><div style="display: table-cell; white-space: nowrap; line-height: 1.5; max-width: 200px; text-align: center;" xmlns="http://www.w3.org/1999/xhtml" class="labelBkg"><span style=";display: inline-block" class="edgeLabel "></span></div></foreignObject></g></g><g class="edgeLabel"><g class="label" transform="translate(0, -12)"><foreignObject width="0" height="24"><div style="display: table-cell; white-space: nowrap; line-height: 1.5; max-width: 200px; text-align: center;" xmlns="http://www.w3.org/1999/xhtml" class="labelBkg"><span style=";display: inline-block" class="edgeLabel "></span></div></foreignObject></g></g><g class="edgeLabel"><g class="label" transform="translate(0, -12)"><foreignObject width="0" height="24"><div style="display: table-cell; white-space: nowrap; line-height: 1.5; max-width: 200px; text-align: center;" xmlns="http://www.w3.org/1999/xhtml" class="labelBkg"><span style=";display: inline-block" class="edgeLabel "></span></div></foreignObject></g></g><g class="edgeLabel"><g class="label" transform="translate(0, -12)"><foreignObject width="0" height="24"><div style="display: table-cell; white-space: nowrap; line-height: 1.5; max-width: 200px; text-align: center;" xmlns="http://www.w3.org/1999/xhtml" class="labelBkg"><span style=";display: inline-block" class="edgeLabel "></span></div></foreignObject></g></g></g><g class="nodes"><g class="node default " id="classId-VolumeConfig-0" transform="translate(104.43359375, 92)"><g class="basic label-container"><path d="M-96.43359375 -84 L96.43359375 -84 L96.43359375 84 L-96.43359375 84" stroke="none" stroke-width="0" fill="#eee" style=""></path><path d="M-96.43359375 -84 C-55.93469383904305 -84, -15.435793928086099 -84, 96.43359375 -84 M-96.43359375 -84 C-56.7015892114708 -84, -16.969584672941593 -84, 96.43359375 -84 M96.43359375 -84 C96.43359375 -45.85808734014653, 96.43359375 -7.716174680293065, 96.43359375 84 M96.43359375 -84 C96.43359375 -36.196112737059764, 96.43359375 11.607774525880473, 96.43359375 84 M96.43359375 84 C33.318731091201315 84, -29.79613156759737 84, -96.43359375 84 M96.43359375 84 C19.95190806650838 84, -56.52977761698324 84, -96.43359375 84 M-96.43359375 84 C-96.43359375 19.069785945677225, -96.43359375 -45.86042810864555, -96.43359375 -84 M-96.43359375 84 C-96.43359375 47.13728297872312, -96.43359375 10.274565957446242, -96.43359375 -84" stroke="#999" stroke-width="1.3" fill="none" style=""></path></g><g class="annotation-group text" transform="translate(0, -60)"></g><g class="label-group text" transform="translate(-51.0234375, -60)"><g class="label" style="font-weight: bolder" transform="translate(0,-12)"><foreignObject width="102.046875" height="24"><div xmlns="http://www.w3.org/1999/xhtml" style="display: table-cell; white-space: nowrap; line-height: 1.5; max-width: 143px; text-align: center;"><span class="nodeLabel markdown-node-label" style=""><p>VolumeConfig</p></span></div></foreignObject></g></g><g class="members-group text" transform="translate(-84.43359375, -12)"><g class="label" style="" transform="translate(0,-12)"><foreignObject width="117.84375" height="24"><div xmlns="http://www.w3.org/1999/xhtml" style="display: table-cell; white-space: nowrap; line-height: 1.5; max-width: 169px; text-align: center;"><span class="nodeLabel markdown-node-label" style=""><p>+chunkCoreDims</p></span></div></foreignObject></g><g class="label" style="" transform="translate(0,12)"><foreignObject width="70.25" height="24"><div xmlns="http://www.w3.org/1999/xhtml" style="display: table-cell; white-space: nowrap; line-height: 1.5; max-width: 124px; text-align: center;"><span class="nodeLabel markdown-node-label" style=""><p>+gridDims</p></span></div></foreignObject></g><g class="label" style="" transform="translate(0,36)"><foreignObject width="49.09375" height="24"><div xmlns="http://www.w3.org/1999/xhtml" style="display: table-cell; white-space: nowrap; line-height: 1.5; max-width: 102px; text-align: center;"><span class="nodeLabel markdown-node-label" style=""><p>+origin</p></span></div></foreignObject></g></g><g class="methods-group text" transform="translate(-84.43359375, 84)"></g><g class="divider" style=""><path d="M-96.43359375 -36 C-32.339295678673054 -36, 31.755002392653893 -36, 96.43359375 -36 M-96.43359375 -36 C-33.629805162474305 -36, 29.17398342505139 -36, 96.43359375 -36" stroke="#999" stroke-width="1.3" fill="none" style=""></path></g><g class="divider" style=""><path d="M-96.43359375 60 C-43.5219673504527 60, 9.389659049094604 60, 96.43359375 60 M-96.43359375 60 C-56.91092851733257 60, -17.388263284665143 60, 96.43359375 60" stroke="#999" stroke-width="1.3" fill="none" style=""></path></g></g><g class="node default " id="classId-ChunkDims-1" transform="translate(1011.6171875, 782)"><g class="basic label-container"><path d="M-62.12109375 -72 L62.12109375 -72 L62.12109375 72 L-62.12109375 72" stroke="none" stroke-width="0" fill="#eee" style=""></path><path d="M-62.12109375 -72 C-32.393755072744995 -72, -2.666416395489989 -72, 62.12109375 -72 M-62.12109375 -72 C-15.537916904720412 -72, 31.045259940559177 -72, 62.12109375 -72 M62.12109375 -72 C62.12109375 -42.17005378753207, 62.12109375 -12.340107575064131, 62.12109375 72 M62.12109375 -72 C62.12109375 -26.640329627802913, 62.12109375 18.719340744394174, 62.12109375 72 M62.12109375 72 C22.719533409284615 72, -16.68202693143077 72, -62.12109375 72 M62.12109375 72 C21.49318186911382 72, -19.134730011772362 72, -62.12109375 72 M-62.12109375 72 C-62.12109375 26.7470270864998, -62.12109375 -18.505945827000403, -62.12109375 -72 M-62.12109375 72 C-62.12109375 23.882924446579466, -62.12109375 -24.234151106841068, -62.12109375 -72" stroke="#999" stroke-width="1.3" fill="none" style=""></path></g><g class="annotation-group text" transform="translate(0, -48)"></g><g class="label-group text" transform="translate(-41.3203125, -48)"><g class="label" style="font-weight: bolder" transform="translate(0,-12)"><foreignObject width="82.640625" height="24"><div xmlns="http://www.w3.org/1999/xhtml" style="display: table-cell; white-space: nowrap; line-height: 1.5; max-width: 127px; text-align: center;"><span class="nodeLabel markdown-node-label" style=""><p>ChunkDims</p></span></div></foreignObject></g></g><g class="members-group text" transform="translate(-50.12109375, 0)"><g class="label" style="" transform="translate(0,-12)"><foreignObject width="39.84375" height="24"><div xmlns="http://www.w3.org/1999/xhtml" style="display: table-cell; white-space: nowrap; line-height: 1.5; max-width: 92px; text-align: center;"><span class="nodeLabel markdown-node-label" style=""><p>+core</p></span></div></foreignObject></g><g class="label" style="" transform="translate(0,12)"><foreignObject width="58.921875" height="24"><div xmlns="http://www.w3.org/1999/xhtml" style="display: table-cell; white-space: nowrap; line-height: 1.5; max-width: 109px; text-align: center;"><span class="nodeLabel markdown-node-label" style=""><p>+sample</p></span></div></foreignObject></g></g><g class="methods-group text" transform="translate(-50.12109375, 72)"></g><g class="divider" style=""><path d="M-62.12109375 -24 C-34.99331202550238 -24, -7.86553030100476 -24, 62.12109375 -24 M-62.12109375 -24 C-22.267937244174448 -24, 17.585219261651105 -24, 62.12109375 -24" stroke="#999" stroke-width="1.3" fill="none" style=""></path></g><g class="divider" style=""><path d="M-62.12109375 48 C-25.825842263355774 48, 10.469409223288451 48, 62.12109375 48 M-62.12109375 48 C-25.674683661858857 48, 10.771726426282285 48, 62.12109375 48" stroke="#999" stroke-width="1.3" fill="none" style=""></path></g></g><g class="node default " id="classId-VoxelVolume-2" transform="translate(1011.6171875, 322)"><g class="basic label-container"><path d="M-64.4765625 -72 L64.4765625 -72 L64.4765625 72 L-64.4765625 72" stroke="none" stroke-width="0" fill="#eee" style=""></path><path d="M-64.4765625 -72 C-37.78170524519953 -72, -11.086847990399072 -72, 64.4765625 -72 M-64.4765625 -72 C-19.458507864414784 -72, 25.55954677117043 -72, 64.4765625 -72 M64.4765625 -72 C64.4765625 -36.43671554063471, 64.4765625 -0.8734310812694162, 64.4765625 72 M64.4765625 -72 C64.4765625 -21.453947398075876, 64.4765625 29.09210520384825, 64.4765625 72 M64.4765625 72 C13.9816670377678 72, -36.5132284244644 72, -64.4765625 72 M64.4765625 72 C16.989607137155566 72, -30.497348225688867 72, -64.4765625 72 M-64.4765625 72 C-64.4765625 17.10810297229405, -64.4765625 -37.7837940554119, -64.4765625 -72 M-64.4765625 72 C-64.4765625 31.0941797842518, -64.4765625 -9.8116404314964, -64.4765625 -72" stroke="#999" stroke-width="1.3" fill="none" style=""></path></g><g class="annotation-group text" transform="translate(0, -48)"></g><g class="label-group text" transform="translate(-47.859375, -48)"><g class="label" style="font-weight: bolder" transform="translate(0,-12)"><foreignObject width="95.71875" height="24"><div xmlns="http://www.w3.org/1999/xhtml" style="display: table-cell; white-space: nowrap; line-height: 1.5; max-width: 137px; text-align: center;"><span class="nodeLabel markdown-node-label" style=""><p>VoxelVolume</p></span></div></foreignObject></g></g><g class="members-group text" transform="translate(-52.4765625, 0)"><g class="label" style="" transform="translate(0,-12)"><foreignObject width="52.15625" height="24"><div xmlns="http://www.w3.org/1999/xhtml" style="display: table-cell; white-space: nowrap; line-height: 1.5; max-width: 104px; text-align: center;"><span class="nodeLabel markdown-node-label" style=""><p>+config</p></span></div></foreignObject></g><g class="label" style="" transform="translate(0,12)"><foreignObject width="57.09375" height="24"><div xmlns="http://www.w3.org/1999/xhtml" style="display: table-cell; white-space: nowrap; line-height: 1.5; max-width: 109px; text-align: center;"><span class="nodeLabel markdown-node-label" style=""><p>+chunks</p></span></div></foreignObject></g></g><g class="methods-group text" transform="translate(-52.4765625, 72)"></g><g class="divider" style=""><path d="M-64.4765625 -24 C-24.14374236593769 -24, 16.18907776812462 -24, 64.4765625 -24 M-64.4765625 -24 C-30.169634760839337 -24, 4.137292978321327 -24, 64.4765625 -24" stroke="#999" stroke-width="1.3" fill="none" style=""></path></g><g class="divider" style=""><path d="M-64.4765625 48 C-32.25120112409653 48, -0.025839748193064338 48, 64.4765625 48 M-64.4765625 48 C-16.415403190590737 48, 31.645756118818525 48, 64.4765625 48" stroke="#999" stroke-width="1.3" fill="none" style=""></path></g></g><g class="node default " id="classId-VoxelChunk-3" transform="translate(1011.6171875, 564)"><g class="basic label-container"><path d="M-68.43359375 -96 L68.43359375 -96 L68.43359375 96 L-68.43359375 96" stroke="none" stroke-width="0" fill="#eee" style=""></path><path d="M-68.43359375 -96 C-30.715338398223757 -96, 7.002916953552486 -96, 68.43359375 -96 M-68.43359375 -96 C-21.954877916948305 -96, 24.52383791610339 -96, 68.43359375 -96 M68.43359375 -96 C68.43359375 -32.11338660370677, 68.43359375 31.773226792586456, 68.43359375 96 M68.43359375 -96 C68.43359375 -20.553998450616035, 68.43359375 54.89200309876793, 68.43359375 96 M68.43359375 96 C15.571615026401297 96, -37.29036369719741 96, -68.43359375 96 M68.43359375 96 C38.48985125490675 96, 8.546108759813514 96, -68.43359375 96 M-68.43359375 96 C-68.43359375 33.55669547315548, -68.43359375 -28.886609053689043, -68.43359375 -96 M-68.43359375 96 C-68.43359375 41.69320794174652, -68.43359375 -12.613584116506956, -68.43359375 -96" stroke="#999" stroke-width="1.3" fill="none" style=""></path></g><g class="annotation-group text" transform="translate(0, -72)"></g><g class="label-group text" transform="translate(-43.8046875, -72)"><g class="label" style="font-weight: bolder" transform="translate(0,-12)"><foreignObject width="87.609375" height="24"><div xmlns="http://www.w3.org/1999/xhtml" style="display: table-cell; white-space: nowrap; line-height: 1.5; max-width: 130px; text-align: center;"><span class="nodeLabel markdown-node-label" style=""><p>VoxelChunk</p></span></div></foreignObject></g></g><g class="members-group text" transform="translate(-56.43359375, -24)"><g class="label" style="" transform="translate(0,-12)"><foreignObject width="55.09375" height="24"><div xmlns="http://www.w3.org/1999/xhtml" style="display: table-cell; white-space: nowrap; line-height: 1.5; max-width: 107px; text-align: center;"><span class="nodeLabel markdown-node-label" style=""><p>+coords</p></span></div></foreignObject></g><g class="label" style="" transform="translate(0,12)"><foreignObject width="41.625" height="24"><div xmlns="http://www.w3.org/1999/xhtml" style="display: table-cell; white-space: nowrap; line-height: 1.5; max-width: 95px; text-align: center;"><span class="nodeLabel markdown-node-label" style=""><p>+dims</p></span></div></foreignObject></g><g class="label" style="" transform="translate(0,36)"><foreignObject width="29.703125" height="24"><div xmlns="http://www.w3.org/1999/xhtml" style="display: table-cell; white-space: nowrap; line-height: 1.5; max-width: 84px; text-align: center;"><span class="nodeLabel markdown-node-label" style=""><p>+sdf</p></span></div></foreignObject></g><g class="label" style="" transform="translate(0,60)"><foreignObject width="69.0625" height="24"><div xmlns="http://www.w3.org/1999/xhtml" style="display: table-cell; white-space: nowrap; line-height: 1.5; max-width: 116px; text-align: center;"><span class="nodeLabel markdown-node-label" style=""><p>+material</p></span></div></foreignObject></g></g><g class="methods-group text" transform="translate(-56.43359375, 96)"></g><g class="divider" style=""><path d="M-68.43359375 -48 C-37.40205691746516 -48, -6.37052008493032 -48, 68.43359375 -48 M-68.43359375 -48 C-18.943418524257844 -48, 30.546756701484313 -48, 68.43359375 -48" stroke="#999" stroke-width="1.3" fill="none" style=""></path></g><g class="divider" style=""><path d="M-68.43359375 72 C-27.816063503640095 72, 12.80146674271981 72, 68.43359375 72 M-68.43359375 72 C-27.567449934252195 72, 13.298693881495609 72, 68.43359375 72" stroke="#999" stroke-width="1.3" fill="none" style=""></path></g></g><g class="node default " id="classId-MaterialId-4" transform="translate(1305.076171875, 564)"><g class="basic label-container"><path d="M-49.2890625 -42 L49.2890625 -42 L49.2890625 42 L-49.2890625 42" stroke="none" stroke-width="0" fill="#eee" style=""></path><path d="M-49.2890625 -42 C-21.64590566839155 -42, 5.997251163216902 -42, 49.2890625 -42 M-49.2890625 -42 C-29.26834057560774 -42, -9.247618651215483 -42, 49.2890625 -42 M49.2890625 -42 C49.2890625 -15.070473815656072, 49.2890625 11.859052368687856, 49.2890625 42 M49.2890625 -42 C49.2890625 -24.60854963442945, 49.2890625 -7.217099268858902, 49.2890625 42 M49.2890625 42 C10.802666841841784 42, -27.68372881631643 42, -49.2890625 42 M49.2890625 42 C22.413769131567836 42, -4.461524236864328 42, -49.2890625 42 M-49.2890625 42 C-49.2890625 23.636687744831992, -49.2890625 5.273375489663984, -49.2890625 -42 M-49.2890625 42 C-49.2890625 23.43432196946397, -49.2890625 4.868643938927939, -49.2890625 -42" stroke="#999" stroke-width="1.3" fill="none" style=""></path></g><g class="annotation-group text" transform="translate(0, -18)"></g><g class="label-group text" transform="translate(-37.2890625, -18)"><g class="label" style="font-weight: bolder" transform="translate(0,-12)"><foreignObject width="74.578125" height="24"><div xmlns="http://www.w3.org/1999/xhtml" style="display: table-cell; white-space: nowrap; line-height: 1.5; max-width: 118px; text-align: center;"><span class="nodeLabel markdown-node-label" style=""><p>MaterialId</p></span></div></foreignObject></g></g><g class="members-group text" transform="translate(-37.2890625, 30)"></g><g class="methods-group text" transform="translate(-37.2890625, 60)"></g><g class="divider" style=""><path d="M-49.2890625 6 C-11.450675856598593 6, 26.387710786802813 6, 49.2890625 6 M-49.2890625 6 C-21.617856399953165 6, 6.053349700093669 6, 49.2890625 6" stroke="#999" stroke-width="1.3" fill="none" style=""></path></g><g class="divider" style=""><path d="M-49.2890625 24 C-20.816747719766923 24, 7.655567060466154 24, 49.2890625 24 M-49.2890625 24 C-27.865081317697257 24, -6.441100135394514 24, 49.2890625 24" stroke="#999" stroke-width="1.3" fill="none" style=""></path></g></g><g class="node default " id="classId-SdfValue-5" transform="translate(294.8828125, 92)"><g class="basic label-container"><path d="M-44.015625 -42 L44.015625 -42 L44.015625 42 L-44.015625 42" stroke="none" stroke-width="0" fill="#eee" style=""></path><path d="M-44.015625 -42 C-17.725180858200098 -42, 8.565263283599805 -42, 44.015625 -42 M-44.015625 -42 C-13.743821893657053 -42, 16.527981212685894 -42, 44.015625 -42 M44.015625 -42 C44.015625 -15.717291407967345, 44.015625 10.56541718406531, 44.015625 42 M44.015625 -42 C44.015625 -14.053536449718237, 44.015625 13.892927100563526, 44.015625 42 M44.015625 42 C17.30654977712886 42, -9.402525445742278 42, -44.015625 42 M44.015625 42 C23.87587398262366 42, 3.7361229652473185 42, -44.015625 42 M-44.015625 42 C-44.015625 20.97016530578864, -44.015625 -0.059669388422719294, -44.015625 -42 M-44.015625 42 C-44.015625 19.097784655763284, -44.015625 -3.804430688473431, -44.015625 -42" stroke="#999" stroke-width="1.3" fill="none" style=""></path></g><g class="annotation-group text" transform="translate(0, -18)"></g><g class="label-group text" transform="translate(-32.015625, -18)"><g class="label" style="font-weight: bolder" transform="translate(0,-12)"><foreignObject width="64.03125" height="24"><div xmlns="http://www.w3.org/1999/xhtml" style="display: table-cell; white-space: nowrap; line-height: 1.5; max-width: 109px; text-align: center;"><span class="nodeLabel markdown-node-label" style=""><p>SdfValue</p></span></div></foreignObject></g></g><g class="members-group text" transform="translate(-32.015625, 30)"></g><g class="methods-group text" transform="translate(-32.015625, 60)"></g><g class="divider" style=""><path d="M-44.015625 6 C-23.337431728978682 6, -2.6592384579573647 6, 44.015625 6 M-44.015625 6 C-21.758639160630906 6, 0.49834667873818717 6, 44.015625 6" stroke="#999" stroke-width="1.3" fill="none" style=""></path></g><g class="divider" style=""><path d="M-44.015625 24 C-13.43177406602117 24, 17.15207686795766 24, 44.015625 24 M-44.015625 24 C-17.845610327698406 24, 8.324404344603188 24, 44.015625 24" stroke="#999" stroke-width="1.3" fill="none" style=""></path></g></g><g class="node default " id="classId-ChunkCoords-6" transform="translate(449.828125, 92)"><g class="basic label-container"><path d="M-60.9296875 -42 L60.9296875 -42 L60.9296875 42 L-60.9296875 42" stroke="none" stroke-width="0" fill="#eee" style=""></path><path d="M-60.9296875 -42 C-27.984560600404798 -42, 4.960566299190404 -42, 60.9296875 -42 M-60.9296875 -42 C-35.512361810778806 -42, -10.095036121557612 -42, 60.9296875 -42 M60.9296875 -42 C60.9296875 -11.94362753901568, 60.9296875 18.11274492196864, 60.9296875 42 M60.9296875 -42 C60.9296875 -21.665964244342014, 60.9296875 -1.331928488684028, 60.9296875 42 M60.9296875 42 C12.34586915428386 42, -36.23794919143228 42, -60.9296875 42 M60.9296875 42 C28.437564133776853 42, -4.0545592324462945 42, -60.9296875 42 M-60.9296875 42 C-60.9296875 10.219819234118464, -60.9296875 -21.56036153176307, -60.9296875 -42 M-60.9296875 42 C-60.9296875 13.34386252123825, -60.9296875 -15.312274957523499, -60.9296875 -42" stroke="#999" stroke-width="1.3" fill="none" style=""></path></g><g class="annotation-group text" transform="translate(0, -18)"></g><g class="label-group text" transform="translate(-48.9296875, -18)"><g class="label" style="font-weight: bolder" transform="translate(0,-12)"><foreignObject width="97.859375" height="24"><div xmlns="http://www.w3.org/1999/xhtml" style="display: table-cell; white-space: nowrap; line-height: 1.5; max-width: 139px; text-align: center;"><span class="nodeLabel markdown-node-label" style=""><p>ChunkCoords</p></span></div></foreignObject></g></g><g class="members-group text" transform="translate(-48.9296875, 30)"></g><g class="methods-group text" transform="translate(-48.9296875, 60)"></g><g class="divider" style=""><path d="M-60.9296875 6 C-13.795023858116608 6, 33.339639783766785 6, 60.9296875 6 M-60.9296875 6 C-35.98927189346185 6, -11.048856286923687 6, 60.9296875 6" stroke="#999" stroke-width="1.3" fill="none" style=""></path></g><g class="divider" style=""><path d="M-60.9296875 24 C-17.347269857427285 24, 26.23514778514543 24, 60.9296875 24 M-60.9296875 24 C-16.95872030651148 24, 27.01224688697704 24, 60.9296875 24" stroke="#999" stroke-width="1.3" fill="none" style=""></path></g></g><g class="node default " id="classId-MeshData-7" transform="translate(1211.015625, 322)"><g class="basic label-container"><path d="M-74.24609375 -96 L74.24609375 -96 L74.24609375 96 L-74.24609375 96" stroke="none" stroke-width="0" fill="#eee" style=""></path><path d="M-74.24609375 -96 C-35.50192494636314 -96, 3.2422438572737207 -96, 74.24609375 -96 M-74.24609375 -96 C-33.055787892108135 -96, 8.13451796578373 -96, 74.24609375 -96 M74.24609375 -96 C74.24609375 -20.75052298349685, 74.24609375 54.4989540330063, 74.24609375 96 M74.24609375 -96 C74.24609375 -55.79691377907811, 74.24609375 -15.593827558156221, 74.24609375 96 M74.24609375 96 C20.796263720367932 96, -32.653566309264136 96, -74.24609375 96 M74.24609375 96 C15.856491046403924 96, -42.53311165719215 96, -74.24609375 96 M-74.24609375 96 C-74.24609375 45.77068060974037, -74.24609375 -4.458638780519266, -74.24609375 -96 M-74.24609375 96 C-74.24609375 45.71018904442431, -74.24609375 -4.579621911151378, -74.24609375 -96" stroke="#999" stroke-width="1.3" fill="none" style=""></path></g><g class="annotation-group text" transform="translate(0, -72)"></g><g class="label-group text" transform="translate(-35.5859375, -72)"><g class="label" style="font-weight: bolder" transform="translate(0,-12)"><foreignObject width="71.171875" height="24"><div xmlns="http://www.w3.org/1999/xhtml" style="display: table-cell; white-space: nowrap; line-height: 1.5; max-width: 116px; text-align: center;"><span class="nodeLabel markdown-node-label" style=""><p>MeshData</p></span></div></foreignObject></g></g><g class="members-group text" transform="translate(-62.24609375, -24)"><g class="label" style="" transform="translate(0,-12)"><foreignObject width="71.640625" height="24"><div xmlns="http://www.w3.org/1999/xhtml" style="display: table-cell; white-space: nowrap; line-height: 1.5; max-width: 122px; text-align: center;"><span class="nodeLabel markdown-node-label" style=""><p>+positions</p></span></div></foreignObject></g><g class="label" style="" transform="translate(0,12)"><foreignObject width="64.828125" height="24"><div xmlns="http://www.w3.org/1999/xhtml" style="display: table-cell; white-space: nowrap; line-height: 1.5; max-width: 116px; text-align: center;"><span class="nodeLabel markdown-node-label" style=""><p>+normals</p></span></div></foreignObject></g><g class="label" style="" transform="translate(0,36)"><foreignObject width="58.296875" height="24"><div xmlns="http://www.w3.org/1999/xhtml" style="display: table-cell; white-space: nowrap; line-height: 1.5; max-width: 109px; text-align: center;"><span class="nodeLabel markdown-node-label" style=""><p>+indices</p></span></div></foreignObject></g><g class="label" style="" transform="translate(0,60)"><foreignObject width="88.90625" height="24"><div xmlns="http://www.w3.org/1999/xhtml" style="display: table-cell; white-space: nowrap; line-height: 1.5; max-width: 136px; text-align: center;"><span class="nodeLabel markdown-node-label" style=""><p>+materialIds</p></span></div></foreignObject></g></g><g class="methods-group text" transform="translate(-62.24609375, 96)"></g><g class="divider" style=""><path d="M-74.24609375 -48 C-25.9457035849084 -48, 22.3546865801832 -48, 74.24609375 -48 M-74.24609375 -48 C-29.449459866231273 -48, 15.347174017537455 -48, 74.24609375 -48" stroke="#999" stroke-width="1.3" fill="none" style=""></path></g><g class="divider" style=""><path d="M-74.24609375 72 C-15.705244403042734 72, 42.83560494391453 72, 74.24609375 72 M-74.24609375 72 C-29.915656454252087 72, 14.414780841495826 72, 74.24609375 72" stroke="#999" stroke-width="1.3" fill="none" style=""></path></g></g><g class="node default " id="classId-SdfSphere-8" transform="translate(619.1953125, 92)"><g class="basic label-container"><path d="M-58.4375 -72 L58.4375 -72 L58.4375 72 L-58.4375 72" stroke="none" stroke-width="0" fill="#eee" style=""></path><path d="M-58.4375 -72 C-32.23324685010421 -72, -6.028993700208417 -72, 58.4375 -72 M-58.4375 -72 C-17.867350666747512 -72, 22.702798666504975 -72, 58.4375 -72 M58.4375 -72 C58.4375 -21.07101902108422, 58.4375 29.857961957831563, 58.4375 72 M58.4375 -72 C58.4375 -26.336598777251318, 58.4375 19.326802445497364, 58.4375 72 M58.4375 72 C29.194312318636154 72, -0.04887536272769211 72, -58.4375 72 M58.4375 72 C13.558642023394022 72, -31.320215953211957 72, -58.4375 72 M-58.4375 72 C-58.4375 34.526275553830196, -58.4375 -2.947448892339608, -58.4375 -72 M-58.4375 72 C-58.4375 38.30572148900094, -58.4375 4.611442978001875, -58.4375 -72" stroke="#999" stroke-width="1.3" fill="none" style=""></path></g><g class="annotation-group text" transform="translate(0, -48)"></g><g class="label-group text" transform="translate(-37.796875, -48)"><g class="label" style="font-weight: bolder" transform="translate(0,-12)"><foreignObject width="75.59375" height="24"><div xmlns="http://www.w3.org/1999/xhtml" style="display: table-cell; white-space: nowrap; line-height: 1.5; max-width: 117px; text-align: center;"><span class="nodeLabel markdown-node-label" style=""><p>SdfSphere</p></span></div></foreignObject></g></g><g class="members-group text" transform="translate(-46.4375, 0)"><g class="label" style="" transform="translate(0,-12)"><foreignObject width="55.078125" height="24"><div xmlns="http://www.w3.org/1999/xhtml" style="display: table-cell; white-space: nowrap; line-height: 1.5; max-width: 103px; text-align: center;"><span class="nodeLabel markdown-node-label" style=""><p>+center</p></span></div></foreignObject></g><g class="label" style="" transform="translate(0,12)"><foreignObject width="51.71875" height="24"><div xmlns="http://www.w3.org/1999/xhtml" style="display: table-cell; white-space: nowrap; line-height: 1.5; max-width: 103px; text-align: center;"><span class="nodeLabel markdown-node-label" style=""><p>+radius</p></span></div></foreignObject></g></g><g class="methods-group text" transform="translate(-46.4375, 72)"></g><g class="divider" style=""><path d="M-58.4375 -24 C-31.453978847774565 -24, -4.470457695549129 -24, 58.4375 -24 M-58.4375 -24 C-29.259481578534377 -24, -0.08146315706875384 -24, 58.4375 -24" stroke="#999" stroke-width="1.3" fill="none" style=""></path></g><g class="divider" style=""><path d="M-58.4375 48 C-32.44703916429192 48, -6.456578328583838 48, 58.4375 48 M-58.4375 48 C-31.139960030433098 48, -3.8424200608661963 48, 58.4375 48" stroke="#999" stroke-width="1.3" fill="none" style=""></path></g></g><g class="node default " id="classId-SdfBox-9" transform="translate(797.02734375, 92)"><g class="basic label-container"><path d="M-69.39453125 -72 L69.39453125 -72 L69.39453125 72 L-69.39453125 72" stroke="none" stroke-width="0" fill="#eee" style=""></path><path d="M-69.39453125 -72 C-41.37176998057693 -72, -13.34900871115385 -72, 69.39453125 -72 M-69.39453125 -72 C-32.09969945812657 -72, 5.195132333746855 -72, 69.39453125 -72 M69.39453125 -72 C69.39453125 -28.39955203286189, 69.39453125 15.200895934276218, 69.39453125 72 M69.39453125 -72 C69.39453125 -26.5142413036834, 69.39453125 18.971517392633203, 69.39453125 72 M69.39453125 72 C22.206685882336252 72, -24.981159485327495 72, -69.39453125 72 M69.39453125 72 C38.38936938052538 72, 7.384207511050754 72, -69.39453125 72 M-69.39453125 72 C-69.39453125 41.424556738926015, -69.39453125 10.849113477852022, -69.39453125 -72 M-69.39453125 72 C-69.39453125 32.868773729781076, -69.39453125 -6.262452540437849, -69.39453125 -72" stroke="#999" stroke-width="1.3" fill="none" style=""></path></g><g class="annotation-group text" transform="translate(0, -48)"></g><g class="label-group text" transform="translate(-25.3984375, -48)"><g class="label" style="font-weight: bolder" transform="translate(0,-12)"><foreignObject width="50.796875" height="24"><div xmlns="http://www.w3.org/1999/xhtml" style="display: table-cell; white-space: nowrap; line-height: 1.5; max-width: 99px; text-align: center;"><span class="nodeLabel markdown-node-label" style=""><p>SdfBox</p></span></div></foreignObject></g></g><g class="members-group text" transform="translate(-57.39453125, 0)"><g class="label" style="" transform="translate(0,-12)"><foreignObject width="55.078125" height="24"><div xmlns="http://www.w3.org/1999/xhtml" style="display: table-cell; white-space: nowrap; line-height: 1.5; max-width: 103px; text-align: center;"><span class="nodeLabel markdown-node-label" style=""><p>+center</p></span></div></foreignObject></g><g class="label" style="" transform="translate(0,12)"><foreignObject width="89.390625" height="24"><div xmlns="http://www.w3.org/1999/xhtml" style="display: table-cell; white-space: nowrap; line-height: 1.5; max-width: 137px; text-align: center;"><span class="nodeLabel markdown-node-label" style=""><p>+halfExtents</p></span></div></foreignObject></g></g><g class="methods-group text" transform="translate(-57.39453125, 72)"></g><g class="divider" style=""><path d="M-69.39453125 -24 C-28.77132157490763 -24, 11.851888100184738 -24, 69.39453125 -24 M-69.39453125 -24 C-16.08880262417069 -24, 37.21692600165862 -24, 69.39453125 -24" stroke="#999" stroke-width="1.3" fill="none" style=""></path></g><g class="divider" style=""><path d="M-69.39453125 48 C-26.35669486807189 48, 16.68114151385622 48, 69.39453125 48 M-69.39453125 48 C-20.067824611297127 48, 29.258882027405747 48, 69.39453125 48" stroke="#999" stroke-width="1.3" fill="none" style=""></path></g></g><g class="node default " id="classId-EditOperation-10" transform="translate(1399.13671875, 322)"><g class="basic label-container"><path d="M-63.875 -42 L63.875 -42 L63.875 42 L-63.875 42" stroke="none" stroke-width="0" fill="#eee" style=""></path><path d="M-63.875 -42 C-20.94951232037203 -42, 21.97597535925594 -42, 63.875 -42 M-63.875 -42 C-24.73678094287733 -42, 14.401438114245337 -42, 63.875 -42 M63.875 -42 C63.875 -22.36177011354753, 63.875 -2.7235402270950573, 63.875 42 M63.875 -42 C63.875 -18.40690342778431, 63.875 5.186193144431378, 63.875 42 M63.875 42 C27.902334821419316 42, -8.070330357161367 42, -63.875 42 M63.875 42 C16.707275479778588 42, -30.460449040442825 42, -63.875 42 M-63.875 42 C-63.875 21.645009157794767, -63.875 1.2900183155895348, -63.875 -42 M-63.875 42 C-63.875 14.850769550862246, -63.875 -12.298460898275508, -63.875 -42" stroke="#999" stroke-width="1.3" fill="none" style=""></path></g><g class="annotation-group text" transform="translate(0, -18)"></g><g class="label-group text" transform="translate(-51.875, -18)"><g class="label" style="font-weight: bolder" transform="translate(0,-12)"><foreignObject width="103.75" height="24"><div xmlns="http://www.w3.org/1999/xhtml" style="display: table-cell; white-space: nowrap; line-height: 1.5; max-width: 141px; text-align: center;"><span class="nodeLabel markdown-node-label" style=""><p>EditOperation</p></span></div></foreignObject></g></g><g class="members-group text" transform="translate(-51.875, 30)"></g><g class="methods-group text" transform="translate(-51.875, 60)"></g><g class="divider" style=""><path d="M-63.875 6 C-29.465200913279467 6, 4.944598173441065 6, 63.875 6 M-63.875 6 C-29.5405229738 6, 4.793954052399997 6, 63.875 6" stroke="#999" stroke-width="1.3" fill="none" style=""></path></g><g class="divider" style=""><path d="M-63.875 24 C-38.12931487290395 24, -12.383629745807887 24, 63.875 24 M-63.875 24 C-23.387600981549504 24, 17.099798036900992 24, 63.875 24" stroke="#999" stroke-width="1.3" fill="none" style=""></path></g></g><g class="node default " id="classId-MesherPort-11" transform="translate(1211.015625, 92)"><g class="basic label-container"><path d="M-54.203125 -42 L54.203125 -42 L54.203125 42 L-54.203125 42" stroke="none" stroke-width="0" fill="#eee" style=""></path><path d="M-54.203125 -42 C-18.651548507798566 -42, 16.90002798440287 -42, 54.203125 -42 M-54.203125 -42 C-18.047916314275156 -42, 18.107292371449688 -42, 54.203125 -42 M54.203125 -42 C54.203125 -13.36565592681906, 54.203125 15.268688146361882, 54.203125 42 M54.203125 -42 C54.203125 -11.29876586016606, 54.203125 19.40246827966788, 54.203125 42 M54.203125 42 C23.119873519859677 42, -7.963377960280646 42, -54.203125 42 M54.203125 42 C11.60126993997887 42, -31.00058512004226 42, -54.203125 42 M-54.203125 42 C-54.203125 14.803794400349275, -54.203125 -12.39241119930145, -54.203125 -42 M-54.203125 42 C-54.203125 11.958614506711914, -54.203125 -18.082770986576172, -54.203125 -42" stroke="#999" stroke-width="1.3" fill="none" style=""></path></g><g class="annotation-group text" transform="translate(0, -18)"></g><g class="label-group text" transform="translate(-42.203125, -18)"><g class="label" style="font-weight: bolder" transform="translate(0,-12)"><foreignObject width="84.40625" height="24"><div xmlns="http://www.w3.org/1999/xhtml" style="display: table-cell; white-space: nowrap; line-height: 1.5; max-width: 125px; text-align: center;"><span class="nodeLabel markdown-node-label" style=""><p>MesherPort</p></span></div></foreignObject></g></g><g class="members-group text" transform="translate(-42.203125, 30)"></g><g class="methods-group text" transform="translate(-42.203125, 60)"></g><g class="divider" style=""><path d="M-54.203125 6 C-22.01092016249106 6, 10.181284675017878 6, 54.203125 6 M-54.203125 6 C-11.980303682160233 6, 30.242517635679533 6, 54.203125 6" stroke="#999" stroke-width="1.3" fill="none" style=""></path></g><g class="divider" style=""><path d="M-54.203125 24 C-27.70019894583422 24, -1.1972728916684403 24, 54.203125 24 M-54.203125 24 C-19.026248257963957 24, 16.150628484072087 24, 54.203125 24" stroke="#999" stroke-width="1.3" fill="none" style=""></path></g></g><g class="node default " id="classId-RandomGeneratorPort-12" transform="translate(1011.6171875, 92)"><g class="basic label-container"><path d="M-95.1953125 -42 L95.1953125 -42 L95.1953125 42 L-95.1953125 42" stroke="none" stroke-width="0" fill="#eee" style=""></path><path d="M-95.1953125 -42 C-44.96337240216832 -42, 5.268567695663364 -42, 95.1953125 -42 M-95.1953125 -42 C-52.018425542526074 -42, -8.841538585052149 -42, 95.1953125 -42 M95.1953125 -42 C95.1953125 -10.967373191642594, 95.1953125 20.065253616714813, 95.1953125 42 M95.1953125 -42 C95.1953125 -23.965905872024678, 95.1953125 -5.931811744049355, 95.1953125 42 M95.1953125 42 C55.98405741759182 42, 16.77280233518364 42, -95.1953125 42 M95.1953125 42 C29.46759834708014 42, -36.26011580583972 42, -95.1953125 42 M-95.1953125 42 C-95.1953125 12.762786610990027, -95.1953125 -16.474426778019946, -95.1953125 -42 M-95.1953125 42 C-95.1953125 12.945995240305212, -95.1953125 -16.108009519389576, -95.1953125 -42" stroke="#999" stroke-width="1.3" fill="none" style=""></path></g><g class="annotation-group text" transform="translate(0, -18)"></g><g class="label-group text" transform="translate(-83.1953125, -18)"><g class="label" style="font-weight: bolder" transform="translate(0,-12)"><foreignObject width="166.390625" height="24"><div xmlns="http://www.w3.org/1999/xhtml" style="display: table-cell; white-space: nowrap; line-height: 1.5; max-width: 195px; text-align: center;"><span class="nodeLabel markdown-node-label" style=""><p>RandomGeneratorPort</p></span></div></foreignObject></g></g><g class="members-group text" transform="translate(-83.1953125, 30)"></g><g class="methods-group text" transform="translate(-83.1953125, 60)"></g><g class="divider" style=""><path d="M-95.1953125 6 C-48.25302805860784 6, -1.3107436172156781 6, 95.1953125 6 M-95.1953125 6 C-47.994458339175324 6, -0.7936041783506482 6, 95.1953125 6" stroke="#999" stroke-width="1.3" fill="none" style=""></path></g><g class="divider" style=""><path d="M-95.1953125 24 C-46.83845919315569 24, 1.5183941136886148 24, 95.1953125 24 M-95.1953125 24 C-38.2635017761725 24, 18.668308947655007 24, 95.1953125 24" stroke="#999" stroke-width="1.3" fill="none" style=""></path></g></g></g></g></g></svg>