<svg id="mermaid-svg" width="100%" xmlns="http://www.w3.org/2000/svg" xmlns:xlink="http://www.w3.org/1999/xlink" class="classDiagram" style="max-width: 1924.12px; background-color: white;" viewBox="0 0 1924.12109375 354" role="graphics-document document" aria-roledescription="class"><style>#mermaid-svg{font-family:"trebuchet ms",verdana,arial,sans-serif;font-size:16px;fill:#000000;}@keyframes edge-animation-frame{from{stroke-dashoffset:0;}}@keyframes dash{to{stroke-dashoffset:0;}}#mermaid-svg .edge-animation-slow{stroke-dasharray:9,5!important;stroke-dashoffset:900;animation:dash 50s linear infinite;stroke-linecap:round;}#mermaid-svg .edge-animation-fast{stroke-dasharray:9,5!important;stroke-dashoffset:900;animation:dash 20s linear infinite;stroke-linecap:round;}#mermaid-svg .error-icon{fill:#552222;}#mermaid-svg .error-text{fill:#552222;stroke:#552222;}#mermaid-svg .edge-thickness-normal{stroke-width:1px;}#mermaid-svg .edge-thickness-thick{stroke-width:3.5px;}#mermaid-svg .edge-pattern-solid{stroke-dasharray:0;}#mermaid-svg .edge-thickness-invisible{stroke-width:0;fill:none;}#mermaid-svg .edge-pattern-dashed{stroke-dasharray:3;}#mermaid-svg .edge-pattern-dotted{stroke-dasharray:2;}#mermaid-svg .marker{fill:#666;stroke:#666;}#mermaid-svg .marker.cross{stroke:#666;}#mermaid-svg svg{font-family:"trebuchet ms",verdana,arial,sans-serif;font-size:16px;}#mermaid-svg p{margin:0;}#mermaid-svg g.classGroup text{fill:#999;stroke:none;font-family:"trebuchet ms",verdana,arial,sans-serif;font-size:10px;}#mermaid-svg g.classGroup text .title{font-weight:bolder;}#mermaid-svg .nodeLabel,#mermaid-svg .edgeLabel{color:#111111;}#mermaid-svg .edgeLabel .label rect{fill:#eee;}#mermaid-svg .label text{fill:#111111;}#mermaid-svg .labelBkg{background:#eee;}#mermaid-svg .edgeLabel .label span{background:#eee;}#mermaid-svg .classTitle{font-weight:bolder;}#mermaid-svg .node rect,#mermaid-svg .node circle,#mermaid-svg .node ellipse,#mermaid-svg .node polygon,#mermaid-svg .node path{fill:#eee;stroke:#999;stroke-width:1px;}#mermaid-svg .divider{stroke:#999;stroke-width:1;}#mermaid-svg g.clickable{cursor:pointer;}#mermaid-svg g.classGroup rect{fill:#eee;stroke:#999;}#mermaid-svg g.classGroup line{stroke:#999;stroke-width:1;}#mermaid-svg .classLabel .box{stroke:none;stroke-width:0;fill:#eee;opacity:0.5;}#mermaid-svg .classLabel .label{fill:#999;font-size:10px;}#mermaid-svg .relation{stroke:#666;stroke-width:1;fill:none;}#mermaid-svg .dashed-line{stroke-dasharray:3;}#mermaid-svg .dotted-line{stroke-dasharray:1 2;}#mermaid-svg #compositionStart,#mermaid-svg .composition{fill:#666!important;stroke:#666!important;stroke-width:1;}#mermaid-svg #compositionEnd,#mermaid-svg .composition{fill:#666!important;stroke:#666!important;stroke-width:1;}#mermaid-svg #dependencyStart,#mermaid-svg .dependency{fill:#666!important;stroke:#666!important;stroke-width:1;}#mermaid-svg #dependencyStart,#mermaid-svg .dependency{fill:#666!important;stroke:#666!important;stroke-width:1;}#mermaid-svg #extensionStart,#mermaid-svg .extension{fill:transparent!important;stroke:#666!important;stroke-width:1;}#mermaid-svg #extensionEnd,#mermaid-svg .extension{fill:transparent!important;stroke:#666!important;stroke-width:1;}#mermaid-svg #aggregationStart,#mermaid-svg .aggregation{fill:transparent!important;stroke:#666!important;stroke-width:1;}#mermaid-svg #aggregationEnd,#mermaid-svg .aggregation{fill:transparent!important;stroke:#666!important;stroke-width:1;}#mermaid-svg #lollipopStart,#mermaid-svg .lollipop{fill:#eee!important;stroke:#666!important;stroke-width:1;}#mermaid-svg #lollipopEnd,#mermaid-svg .lollipop{fill:#eee!important;stroke:#666!important;stroke-width:1;}#mermaid-svg .edgeTerminals{font-size:11px;line-height:initial;}#mermaid-svg .classTitleText{text-anchor:middle;font-size:18px;fill:#000000;}#mermaid-svg .label-icon{display:inline-block;height:1em;overflow:visible;vertical-align:-0.125em;}#mermaid-svg .node .label-icon path{fill:currentColor;stroke:revert;stroke-width:revert;}#mermaid-svg :root{--mermaid-font-family:"trebuchet ms",verdana,arial,sans-serif;}</style><g><defs><marker id="mermaid-svg_class-aggregationStart" class="marker aggregation class" refX="18" refY="7" markerWidth="190" markerHeight="240" orient="auto"><path d="M 18,7 L9,13 L1,7 L9,1 Z"></path></marker></defs><defs><marker id="mermaid-svg_class-aggregationEnd" class="marker aggregation class" refX="1" refY="7" markerWidth="20" markerHeight="28" orient="auto"><path d="M 18,7 L9,13 L1,7 L9,1 Z"></path></marker></defs><defs><marker id="mermaid-svg_class-extensionStart" class="marker extension class" refX="18" refY="7" markerWidth="190" markerHeight="240" orient="auto"><path d="M 1,7 L18,13 V 1 Z"></path></marker></defs><defs><marker id="mermaid-svg_class-extensionEnd" class="marker extension class" refX="1" refY="7" markerWidth="20" markerHeight="28" orient="auto"><path d="M 1,1 V 13 L18,7 Z"></path></marker></defs><defs><marker id="mermaid-svg_class-compositionStart" class="marker composition class" refX="18" refY="7" markerWidth="190" markerHeight="240" orient="auto"><path d="M 18,7 L9,13 L1,7 L9,1 Z"></path></marker></defs><defs><marker id="mermaid-svg_class-compositionEnd" class="marker composition class" refX="1" refY="7" markerWidth="20" markerHeight="28" orient="auto"><path d="M 18,7 L9,13 L1,7 L9,1 Z"></path></marker></defs><defs><marker id="mermaid-svg_class-dependencyStart" class="marker dependency class" refX="6" refY="7" markerWidth="190" markerHeight="240" orient="auto"><path d="M 5,7 L9,13 L1,7 L9,1 Z"></path></marker></defs><defs><marker id="mermaid-svg_class-dependencyEnd" class="marker dependency class" refX="13" refY="7" markerWidth="20" markerHeight="28" orient="auto"><path d="M 18,7 L9,13 L14,7 L9,1 Z"></path></marker></defs><defs><marker id="mermaid-svg_class-lollipopStart" class="marker lollipop class" refX="13" refY="7" markerWidth="190" markerHeight="240" orient="auto"><circle stroke="black" fill="transparent" cx="7" cy="7" r="6"></circle></marker></defs><defs><marker id="mermaid-svg_class-lollipopEnd" class="marker lollipop class" refX="1" refY="7" markerWidth="190" markerHeight="240" orient="auto"><circle stroke="black" fill="transparent" cx="7" cy="7" r="6"></circle></marker></defs><g class="root"><g class="clusters"></g><g class="edgePaths"><path d="M659.685,140L652.937,146.167C646.19,152.333,632.695,164.667,625.947,179C619.199,193.333,619.199,209.667,619.199,217.833L619.199,226" id="id_VolumeServiceResource_VoxelVolumeConfig_1" class=" edge-thickness-normal edge-pattern-solid relation" style="" marker-end="url(#mermaid-svg_class-dependencyEnd)"></path><path d="M790.991,140L797.738,146.167C804.486,152.333,817.981,164.667,824.729,174C831.477,183.333,831.477,189.667,831.477,192.833L831.477,196" id="id_VolumeServiceResource_VoxelEditEvent_2" class=" edge-thickness-normal edge-pattern-solid relation" style="" marker-end="url(#mermaid-svg_class-dependencyEnd)"></path><path d="M1113.599,140L1105.15,146.167C1096.701,152.333,1079.804,164.667,1071.355,176C1062.906,187.333,1062.906,197.667,1062.906,202.833L1062.906,208" id="id_MeshServiceResource_MeshingBudget_3" class=" edge-thickness-normal edge-pattern-solid relation" style="" marker-end="url(#mermaid-svg_class-dependencyEnd)"></path><path d="M1278.007,140L1286.455,146.167C1294.904,152.333,1311.802,164.667,1320.25,179C1328.699,193.333,1328.699,209.667,1328.699,217.833L1328.699,226" id="id_MeshServiceResource_SurfaceNetsMesherAdapter_4" class=" edge-thickness-normal edge-pattern-solid relation" style="" marker-end="url(#mermaid-svg_class-dependencyEnd)"></path><path d="M302.438,140L302.438,146.167C302.438,152.333,302.438,164.667,302.438,176C302.438,187.333,302.438,197.667,302.438,202.833L302.438,208" id="id_VoxelChunkData_VoxelChunkComponent_5" class=" edge-thickness-normal edge-pattern-solid relation" style="" marker-end="url(#mermaid-svg_class-dependencyEnd)"></path><path d="M1589.027,152L1589.027,156.167C1589.027,160.333,1589.027,168.667,1589.027,178C1589.027,187.333,1589.027,197.667,1589.027,202.833L1589.027,208" id="id_MeshReady_VoxelMaterialResource_6" class=" edge-thickness-normal edge-pattern-solid relation" style="" marker-end="url(#mermaid-svg_class-dependencyEnd)"></path></g><g class="edgeLabels"><g class="edgeLabel"><g class="label" transform="translate(0, -12)"><foreignObject width="0" height="24"><div style="display: table-cell; white-space: nowrap; line-height: 1.5; max-width: 200px; text-align: center;" xmlns="http://www.w3.org/1999/xhtml" class="labelBkg"><span style=";display: inline-block" class="edgeLabel "></span></div></foreignObject></g></g><g class="edgeLabel"><g class="label" transform="translate(0, -12)"><foreignObject width="0" height="24"><div style="display: table-cell; white-space: nowrap; line-height: 1.5; max-width: 200px; text-align: center;" xmlns="http://www.w3.org/1999/xhtml" class="labelBkg"><span style=";display: inline-block" class="edgeLabel "></span></div></foreignObject></g></g><g class="edgeLabel"><g class="label" transform="translate(0, -12)"><foreignObject width="0" height="24"><div style="display: table-cell; white-space: nowrap; line-height: 1.5; max-width: 200px; text-align: center;" xmlns="http://www.w3.org/1999/xhtml" class="labelBkg"><span style=";display: inline-block" class="edgeLabel "></span></div></foreignObject></g></g><g class="edgeLabel"><g class="label" transform="translate(0, -12)"><foreignObject width="0" height="24"><div style="display: table-cell; white-space: nowrap; line-height: 1.5; max-width: 200px; text-align: center;" xmlns="http://www.w3.org/1999/xhtml" class="labelBkg"><span style=";display: inline-block" class="edgeLabel "></span></div></foreignObject></g></g><g class="edgeLabel"><g class="label" transform="translate(0, -12)"><foreignObject width="0" height="24"><div style="display: table-cell; white-space: nowrap; line-height: 1.5; max-width: 200px; text-align: center;" xmlns="http://www.w3.org/1999/xhtml" class="labelBkg"><span style=";display: inline-block" class="edgeLabel "></span></div></foreignObject></g></g><g class="edgeLabel"><g class="label" transform="translate(0, -12)"><foreignObject width="0" height="24"><div style="display: table-cell; white-space: nowrap; line-height: 1.5; max-width: 200px; text-align: center;" xmlns="http://www.w3.org/1999/xhtml" class="labelBkg"><span style=";display: inline-block" class="edgeLabel "></span></div></foreignObject></g></g></g><g class="nodes"><g class="node default " id="classId-VoxelVolumeMarker-0" transform="translate(93.8984375, 80)"><g class="basic label-container"><path d="M-85.8984375 -42 L85.8984375 -42 L85.8984375 42 L-85.8984375 42" stroke="none" stroke-width="0" fill="#eee" style=""></path><path d="M-85.8984375 -42 C-48.16111184337179 -42, -10.423786186743584 -42, 85.8984375 -42 M-85.8984375 -42 C-48.74843366052114 -42, -11.598429821042274 -42, 85.8984375 -42 M85.8984375 -42 C85.8984375 -8.438288670610063, 85.8984375 25.123422658779873, 85.8984375 42 M85.8984375 -42 C85.8984375 -9.820552173220229, 85.8984375 22.358895653559543, 85.8984375 42 M85.8984375 42 C27.82063156096344 42, -30.257174378073117 42, -85.8984375 42 M85.8984375 42 C17.579986157766513 42, -50.738465184466975 42, -85.8984375 42 M-85.8984375 42 C-85.8984375 15.79408618454972, -85.8984375 -10.41182763090056, -85.8984375 -42 M-85.8984375 42 C-85.8984375 19.842640607268184, -85.8984375 -2.314718785463633, -85.8984375 -42" stroke="#999" stroke-width="1.3" fill="none" style=""></path></g><g class="annotation-group text" transform="translate(0, -18)"></g><g class="label-group text" transform="translate(-73.8984375, -18)"><g class="label" style="font-weight: bolder" transform="translate(0,-12)"><foreignObject width="147.796875" height="24"><div xmlns="http://www.w3.org/1999/xhtml" style="display: table-cell; white-space: nowrap; line-height: 1.5; max-width: 184px; text-align: center;"><span class="nodeLabel markdown-node-label" style=""><p>VoxelVolumeMarker</p></span></div></foreignObject></g></g><g class="members-group text" transform="translate(-73.8984375, 30)"></g><g class="methods-group text" transform="translate(-73.8984375, 60)"></g><g class="divider" style=""><path d="M-85.8984375 6 C-17.381444569381742 6, 51.135548361236516 6, 85.8984375 6 M-85.8984375 6 C-43.114329132101474 6, -0.33022076420294866 6, 85.8984375 6" stroke="#999" stroke-width="1.3" fill="none" style=""></path></g><g class="divider" style=""><path d="M-85.8984375 24 C-18.314972559630036 24, 49.26849238073993 24, 85.8984375 24 M-85.8984375 24 C-44.25586971587145 24, -2.613301931742896 24, 85.8984375 24" stroke="#999" stroke-width="1.3" fill="none" style=""></path></g></g><g class="node default " id="classId-VoxelChunkComponent-1" transform="translate(302.4375, 274)"><g class="basic label-container"><path d="M-98.5078125 -60 L98.5078125 -60 L98.5078125 60 L-98.5078125 60" stroke="none" stroke-width="0" fill="#eee" style=""></path><path d="M-98.5078125 -60 C-30.550735260153502 -60, 37.406341979692996 -60, 98.5078125 -60 M-98.5078125 -60 C-26.945008789946073 -60, 44.617794920107855 -60, 98.5078125 -60 M98.5078125 -60 C98.5078125 -22.443101069424394, 98.5078125 15.113797861151212, 98.5078125 60 M98.5078125 -60 C98.5078125 -12.736297831723874, 98.5078125 34.52740433655225, 98.5078125 60 M98.5078125 60 C55.091373776028405 60, 11.67493505205681 60, -98.5078125 60 M98.5078125 60 C49.21678201092061 60, -0.07424847815877911 60, -98.5078125 60 M-98.5078125 60 C-98.5078125 15.357007200751113, -98.5078125 -29.285985598497774, -98.5078125 -60 M-98.5078125 60 C-98.5078125 26.21249698903702, -98.5078125 -7.575006021925958, -98.5078125 -60" stroke="#999" stroke-width="1.3" fill="none" style=""></path></g><g class="annotation-group text" transform="translate(0, -36)"></g><g class="label-group text" transform="translate(-86.5078125, -36)"><g class="label" style="font-weight: bolder" transform="translate(0,-12)"><foreignObject width="173.015625" height="24"><div xmlns="http://www.w3.org/1999/xhtml" style="display: table-cell; white-space: nowrap; line-height: 1.5; max-width: 204px; text-align: center;"><span class="nodeLabel markdown-node-label" style=""><p>VoxelChunkComponent</p></span></div></foreignObject></g></g><g class="members-group text" transform="translate(-86.5078125, 12)"><g class="label" style="" transform="translate(0,-12)"><foreignObject width="55.09375" height="24"><div xmlns="http://www.w3.org/1999/xhtml" style="display: table-cell; white-space: nowrap; line-height: 1.5; max-width: 107px; text-align: center;"><span class="nodeLabel markdown-node-label" style=""><p>+coords</p></span></div></foreignObject></g></g><g class="methods-group text" transform="translate(-86.5078125, 60)"></g><g class="divider" style=""><path d="M-98.5078125 -12 C-30.805969409776253 -12, 36.895873680447494 -12, 98.5078125 -12 M-98.5078125 -12 C-54.84016017120674 -12, -11.17250784241348 -12, 98.5078125 -12" stroke="#999" stroke-width="1.3" fill="none" style=""></path></g><g class="divider" style=""><path d="M-98.5078125 36 C-52.864534673246276 36, -7.221256846492551 36, 98.5078125 36 M-98.5078125 36 C-32.50364388095069 36, 33.50052473809862 36, 98.5078125 36" stroke="#999" stroke-width="1.3" fill="none" style=""></path></g></g><g class="node default " id="classId-VoxelChunkData-2" transform="translate(302.4375, 80)"><g class="basic label-container"><path d="M-72.640625 -60 L72.640625 -60 L72.640625 60 L-72.640625 60" stroke="none" stroke-width="0" fill="#eee" style=""></path><path d="M-72.640625 -60 C-24.235473356936836 -60, 24.169678286126327 -60, 72.640625 -60 M-72.640625 -60 C-29.439343728069247 -60, 13.761937543861507 -60, 72.640625 -60 M72.640625 -60 C72.640625 -14.38270581137607, 72.640625 31.23458837724786, 72.640625 60 M72.640625 -60 C72.640625 -18.468706910702622, 72.640625 23.062586178594756, 72.640625 60 M72.640625 60 C30.606307586978183 60, -11.428009826043635 60, -72.640625 60 M72.640625 60 C21.26032989956733 60, -30.119965200865337 60, -72.640625 60 M-72.640625 60 C-72.640625 35.191964298398844, -72.640625 10.383928596797688, -72.640625 -60 M-72.640625 60 C-72.640625 13.626550922323581, -72.640625 -32.74689815535284, -72.640625 -60" stroke="#999" stroke-width="1.3" fill="none" style=""></path></g><g class="annotation-group text" transform="translate(0, -36)"></g><g class="label-group text" transform="translate(-60.640625, -36)"><g class="label" style="font-weight: bolder" transform="translate(0,-12)"><foreignObject width="121.28125" height="24"><div xmlns="http://www.w3.org/1999/xhtml" style="display: table-cell; white-space: nowrap; line-height: 1.5; max-width: 160px; text-align: center;"><span class="nodeLabel markdown-node-label" style=""><p>VoxelChunkData</p></span></div></foreignObject></g></g><g class="members-group text" transform="translate(-60.640625, 12)"><g class="label" style="" transform="translate(0,-12)"><foreignObject width="50.609375" height="24"><div xmlns="http://www.w3.org/1999/xhtml" style="display: table-cell; white-space: nowrap; line-height: 1.5; max-width: 103px; text-align: center;"><span class="nodeLabel markdown-node-label" style=""><p>+chunk</p></span></div></foreignObject></g></g><g class="methods-group text" transform="translate(-60.640625, 60)"></g><g class="divider" style=""><path d="M-72.640625 -12 C-20.002090714077482 -12, 32.636443571845035 -12, 72.640625 -12 M-72.640625 -12 C-33.29114688320368 -12, 6.058331233592639 -12, 72.640625 -12" stroke="#999" stroke-width="1.3" fill="none" style=""></path></g><g class="divider" style=""><path d="M-72.640625 36 C-38.23434349977293 36, -3.8280619995458665 36, 72.640625 36 M-72.640625 36 C-25.91861417895356 36, 20.803396642092878 36, 72.640625 36" stroke="#999" stroke-width="1.3" fill="none" style=""></path></g></g><g class="node default " id="classId-NeedsRemesh-3" transform="translate(488.8515625, 80)"><g class="basic label-container"><path d="M-63.7734375 -42 L63.7734375 -42 L63.7734375 42 L-63.7734375 42" stroke="none" stroke-width="0" fill="#eee" style=""></path><path d="M-63.7734375 -42 C-28.15832163366307 -42, 7.456794232673857 -42, 63.7734375 -42 M-63.7734375 -42 C-21.991792293969404 -42, 19.789852912061193 -42, 63.7734375 -42 M63.7734375 -42 C63.7734375 -12.780665727691645, 63.7734375 16.43866854461671, 63.7734375 42 M63.7734375 -42 C63.7734375 -17.82226350108468, 63.7734375 6.355472997830638, 63.7734375 42 M63.7734375 42 C31.714144765843656 42, -0.3451479683126877 42, -63.7734375 42 M63.7734375 42 C28.298790682070354 42, -7.175856135859291 42, -63.7734375 42 M-63.7734375 42 C-63.7734375 20.922399157539438, -63.7734375 -0.15520168492112418, -63.7734375 -42 M-63.7734375 42 C-63.7734375 10.060745614897861, -63.7734375 -21.878508770204277, -63.7734375 -42" stroke="#999" stroke-width="1.3" fill="none" style=""></path></g><g class="annotation-group text" transform="translate(0, -18)"></g><g class="label-group text" transform="translate(-51.7734375, -18)"><g class="label" style="font-weight: bolder" transform="translate(0,-12)"><foreignObject width="103.546875" height="24"><div xmlns="http://www.w3.org/1999/xhtml" style="display: table-cell; white-space: nowrap; line-height: 1.5; max-width: 142px; text-align: center;"><span class="nodeLabel markdown-node-label" style=""><p>NeedsRemesh</p></span></div></foreignObject></g></g><g class="members-group text" transform="translate(-51.7734375, 30)"></g><g class="methods-group text" transform="translate(-51.7734375, 60)"></g><g class="divider" style=""><path d="M-63.7734375 6 C-19.39841507417347 6, 24.97660735165306 6, 63.7734375 6 M-63.7734375 6 C-28.229012707561793 6, 7.315412084876414 6, 63.7734375 6" stroke="#999" stroke-width="1.3" fill="none" style=""></path></g><g class="divider" style=""><path d="M-63.7734375 24 C-13.510027481874864 24, 36.75338253625027 24, 63.7734375 24 M-63.7734375 24 C-15.398917698682673 24, 32.97560210263465 24, 63.7734375 24" stroke="#999" stroke-width="1.3" fill="none" style=""></path></g></g><g class="node default " id="classId-VoxelVolumeConfig-4" transform="translate(619.19921875, 274)"><g class="basic label-container"><path d="M-83.359375 -42 L83.359375 -42 L83.359375 42 L-83.359375 42" stroke="none" stroke-width="0" fill="#eee" style=""></path><path d="M-83.359375 -42 C-41.85828355729998 -42, -0.3571921145999539 -42, 83.359375 -42 M-83.359375 -42 C-17.296498950814467 -42, 48.766377098371066 -42, 83.359375 -42 M83.359375 -42 C83.359375 -15.884013063561117, 83.359375 10.231973872877766, 83.359375 42 M83.359375 -42 C83.359375 -9.678222002186516, 83.359375 22.64355599562697, 83.359375 42 M83.359375 42 C49.313013721242655 42, 15.26665244248531 42, -83.359375 42 M83.359375 42 C25.389198400673102 42, -32.580978198653796 42, -83.359375 42 M-83.359375 42 C-83.359375 21.961505036410024, -83.359375 1.9230100728200483, -83.359375 -42 M-83.359375 42 C-83.359375 18.158585413252467, -83.359375 -5.682829173495065, -83.359375 -42" stroke="#999" stroke-width="1.3" fill="none" style=""></path></g><g class="annotation-group text" transform="translate(0, -18)"></g><g class="label-group text" transform="translate(-71.359375, -18)"><g class="label" style="font-weight: bolder" transform="translate(0,-12)"><foreignObject width="142.71875" height="24"><div xmlns="http://www.w3.org/1999/xhtml" style="display: table-cell; white-space: nowrap; line-height: 1.5; max-width: 180px; text-align: center;"><span class="nodeLabel markdown-node-label" style=""><p>VoxelVolumeConfig</p></span></div></foreignObject></g></g><g class="members-group text" transform="translate(-71.359375, 30)"></g><g class="methods-group text" transform="translate(-71.359375, 60)"></g><g class="divider" style=""><path d="M-83.359375 6 C-47.126126623574706 6, -10.892878247149412 6, 83.359375 6 M-83.359375 6 C-36.57948402484168 6, 10.200406950316633 6, 83.359375 6" stroke="#999" stroke-width="1.3" fill="none" style=""></path></g><g class="divider" style=""><path d="M-83.359375 24 C-19.979216011065816 24, 43.40094297786837 24, 83.359375 24 M-83.359375 24 C-38.22631324028861 24, 6.906748519422777 24, 83.359375 24" stroke="#999" stroke-width="1.3" fill="none" style=""></path></g></g><g class="node default " id="classId-VolumeServiceResource-5" transform="translate(725.337890625, 80)"><g class="basic label-container"><path d="M-101.46875 -60 L101.46875 -60 L101.46875 60 L-101.46875 60" stroke="none" stroke-width="0" fill="#eee" style=""></path><path d="M-101.46875 -60 C-34.98486970080418 -60, 31.499010598391635 -60, 101.46875 -60 M-101.46875 -60 C-27.82643061079952 -60, 45.81588877840096 -60, 101.46875 -60 M101.46875 -60 C101.46875 -14.449035466450134, 101.46875 31.101929067099732, 101.46875 60 M101.46875 -60 C101.46875 -26.16798541672518, 101.46875 7.664029166549639, 101.46875 60 M101.46875 60 C46.275903347490086 60, -8.916943305019828 60, -101.46875 60 M101.46875 60 C45.02684076927102 60, -11.415068461457963 60, -101.46875 60 M-101.46875 60 C-101.46875 19.19596900924408, -101.46875 -21.608061981511838, -101.46875 -60 M-101.46875 60 C-101.46875 22.35546303131143, -101.46875 -15.28907393737714, -101.46875 -60" stroke="#999" stroke-width="1.3" fill="none" style=""></path></g><g class="annotation-group text" transform="translate(0, -36)"></g><g class="label-group text" transform="translate(-89.46875, -36)"><g class="label" style="font-weight: bolder" transform="translate(0,-12)"><foreignObject width="178.9375" height="24"><div xmlns="http://www.w3.org/1999/xhtml" style="display: table-cell; white-space: nowrap; line-height: 1.5; max-width: 207px; text-align: center;"><span class="nodeLabel markdown-node-label" style=""><p>VolumeServiceResource</p></span></div></foreignObject></g></g><g class="members-group text" transform="translate(-89.46875, 12)"><g class="label" style="" transform="translate(0,-12)"><foreignObject width="58.859375" height="24"><div xmlns="http://www.w3.org/1999/xhtml" style="display: table-cell; white-space: nowrap; line-height: 1.5; max-width: 109px; text-align: center;"><span class="nodeLabel markdown-node-label" style=""><p>+service</p></span></div></foreignObject></g></g><g class="methods-group text" transform="translate(-89.46875, 60)"></g><g class="divider" style=""><path d="M-101.46875 -12 C-37.0413794486839 -12, 27.385991102632204 -12, 101.46875 -12 M-101.46875 -12 C-50.35907748295577 -12, 0.7505950340884624 -12, 101.46875 -12" stroke="#999" stroke-width="1.3" fill="none" style=""></path></g><g class="divider" style=""><path d="M-101.46875 36 C-48.830654930099655 36, 3.80744013980069 36, 101.46875 36 M-101.46875 36 C-25.565283445793426 36, 50.33818310841315 36, 101.46875 36" stroke="#999" stroke-width="1.3" fill="none" style=""></path></g></g><g class="node default " id="classId-MeshServiceResource-6" transform="translate(1195.802734375, 80)"><g class="basic label-container"><path d="M-92.6953125 -60 L92.6953125 -60 L92.6953125 60 L-92.6953125 60" stroke="none" stroke-width="0" fill="#eee" style=""></path><path d="M-92.6953125 -60 C-22.374953543322874 -60, 47.94540541335425 -60, 92.6953125 -60 M-92.6953125 -60 C-33.95062294130013 -60, 24.794066617399736 -60, 92.6953125 -60 M92.6953125 -60 C92.6953125 -14.400742859988853, 92.6953125 31.198514280022295, 92.6953125 60 M92.6953125 -60 C92.6953125 -34.455674684461, 92.6953125 -8.911349368922004, 92.6953125 60 M92.6953125 60 C52.36497851258597 60, 12.034644525171942 60, -92.6953125 60 M92.6953125 60 C46.22885581560411 60, -0.23760086879177322 60, -92.6953125 60 M-92.6953125 60 C-92.6953125 23.744271745644163, -92.6953125 -12.511456508711674, -92.6953125 -60 M-92.6953125 60 C-92.6953125 13.24642273059478, -92.6953125 -33.50715453881044, -92.6953125 -60" stroke="#999" stroke-width="1.3" fill="none" style=""></path></g><g class="annotation-group text" transform="translate(0, -36)"></g><g class="label-group text" transform="translate(-80.6953125, -36)"><g class="label" style="font-weight: bolder" transform="translate(0,-12)"><foreignObject width="161.390625" height="24"><div xmlns="http://www.w3.org/1999/xhtml" style="display: table-cell; white-space: nowrap; line-height: 1.5; max-width: 193px; text-align: center;"><span class="nodeLabel markdown-node-label" style=""><p>MeshServiceResource</p></span></div></foreignObject></g></g><g class="members-group text" transform="translate(-80.6953125, 12)"><g class="label" style="" transform="translate(0,-12)"><foreignObject width="58.859375" height="24"><div xmlns="http://www.w3.org/1999/xhtml" style="display: table-cell; white-space: nowrap; line-height: 1.5; max-width: 109px; text-align: center;"><span class="nodeLabel markdown-node-label" style=""><p>+service</p></span></div></foreignObject></g></g><g class="methods-group text" transform="translate(-80.6953125, 60)"></g><g class="divider" style=""><path d="M-92.6953125 -12 C-49.30094072014234 -12, -5.906568940284686 -12, 92.6953125 -12 M-92.6953125 -12 C-26.35293500436238 -12, 39.98944249127524 -12, 92.6953125 -12" stroke="#999" stroke-width="1.3" fill="none" style=""></path></g><g class="divider" style=""><path d="M-92.6953125 36 C-39.241218404486006 36, 14.212875691027989 36, 92.6953125 36 M-92.6953125 36 C-29.498882968408324 36, 33.69754656318335 36, 92.6953125 36" stroke="#999" stroke-width="1.3" fill="none" style=""></path></g></g><g class="node default " id="classId-MeshingBudget-7" transform="translate(1062.90625, 274)"><g class="basic label-container"><path d="M-102.51171875 -60 L102.51171875 -60 L102.51171875 60 L-102.51171875 60" stroke="none" stroke-width="0" fill="#eee" style=""></path><path d="M-102.51171875 -60 C-46.35028889576264 -60, 9.811140958474724 -60, 102.51171875 -60 M-102.51171875 -60 C-61.212389028173945 -60, -19.91305930634789 -60, 102.51171875 -60 M102.51171875 -60 C102.51171875 -17.431029479551768, 102.51171875 25.137941040896465, 102.51171875 60 M102.51171875 -60 C102.51171875 -17.825569379350554, 102.51171875 24.34886124129889, 102.51171875 60 M102.51171875 60 C42.06165841812989 60, -18.388401913740225 60, -102.51171875 60 M102.51171875 60 C29.162597774728937 60, -44.186523200542126 60, -102.51171875 60 M-102.51171875 60 C-102.51171875 34.18118935570323, -102.51171875 8.362378711406464, -102.51171875 -60 M-102.51171875 60 C-102.51171875 23.30009128393712, -102.51171875 -13.399817432125758, -102.51171875 -60" stroke="#999" stroke-width="1.3" fill="none" style=""></path></g><g class="annotation-group text" transform="translate(0, -36)"></g><g class="label-group text" transform="translate(-55.7890625, -36)"><g class="label" style="font-weight: bolder" transform="translate(0,-12)"><foreignObject width="111.578125" height="24"><div xmlns="http://www.w3.org/1999/xhtml" style="display: table-cell; white-space: nowrap; line-height: 1.5; max-width: 152px; text-align: center;"><span class="nodeLabel markdown-node-label" style=""><p>MeshingBudget</p></span></div></foreignObject></g></g><g class="members-group text" transform="translate(-90.51171875, 12)"><g class="label" style="" transform="translate(0,-12)"><foreignObject width="125.234375" height="24"><div xmlns="http://www.w3.org/1999/xhtml" style="display: table-cell; white-space: nowrap; line-height: 1.5; max-width: 172px; text-align: center;"><span class="nodeLabel markdown-node-label" style=""><p>+chunksPerFrame</p></span></div></foreignObject></g></g><g class="methods-group text" transform="translate(-90.51171875, 60)"></g><g class="divider" style=""><path d="M-102.51171875 -12 C-35.690843578932316 -12, 31.130031592135367 -12, 102.51171875 -12 M-102.51171875 -12 C-45.60490403016016 -12, 11.301910689679687 -12, 102.51171875 -12" stroke="#999" stroke-width="1.3" fill="none" style=""></path></g><g class="divider" style=""><path d="M-102.51171875 36 C-22.508640861037364 36, 57.49443702792527 36, 102.51171875 36 M-102.51171875 36 C-38.270391878151585 36, 25.97093499369683 36, 102.51171875 36" stroke="#999" stroke-width="1.3" fill="none" style=""></path></g></g><g class="node default " id="classId-VoxelMaterialResource-8" transform="translate(1589.02734375, 274)"><g class="basic label-container"><path d="M-97.046875 -60 L97.046875 -60 L97.046875 60 L-97.046875 60" stroke="none" stroke-width="0" fill="#eee" style=""></path><path d="M-97.046875 -60 C-30.63981867572363 -60, 35.76723764855274 -60, 97.046875 -60 M-97.046875 -60 C-29.531281076859045 -60, 37.98431284628191 -60, 97.046875 -60 M97.046875 -60 C97.046875 -28.308291077430503, 97.046875 3.383417845138993, 97.046875 60 M97.046875 -60 C97.046875 -17.9296045821644, 97.046875 24.140790835671197, 97.046875 60 M97.046875 60 C28.275630711471052 60, -40.495613577057895 60, -97.046875 60 M97.046875 60 C55.00984233190537 60, 12.972809663810736 60, -97.046875 60 M-97.046875 60 C-97.046875 28.253870545251665, -97.046875 -3.4922589094966696, -97.046875 -60 M-97.046875 60 C-97.046875 21.100761996737972, -97.046875 -17.798476006524055, -97.046875 -60" stroke="#999" stroke-width="1.3" fill="none" style=""></path></g><g class="annotation-group text" transform="translate(0, -36)"></g><g class="label-group text" transform="translate(-85.046875, -36)"><g class="label" style="font-weight: bolder" transform="translate(0,-12)"><foreignObject width="170.09375" height="24"><div xmlns="http://www.w3.org/1999/xhtml" style="display: table-cell; white-space: nowrap; line-height: 1.5; max-width: 201px; text-align: center;"><span class="nodeLabel markdown-node-label" style=""><p>VoxelMaterialResource</p></span></div></foreignObject></g></g><g class="members-group text" transform="translate(-85.046875, 12)"><g class="label" style="" transform="translate(0,-12)"><foreignObject width="69.0625" height="24"><div xmlns="http://www.w3.org/1999/xhtml" style="display: table-cell; white-space: nowrap; line-height: 1.5; max-width: 116px; text-align: center;"><span class="nodeLabel markdown-node-label" style=""><p>+material</p></span></div></foreignObject></g></g><g class="methods-group text" transform="translate(-85.046875, 60)"></g><g class="divider" style=""><path d="M-97.046875 -12 C-21.07705566588598 -12, 54.89276366822804 -12, 97.046875 -12 M-97.046875 -12 C-19.54039193275949 -12, 57.96609113448102 -12, 97.046875 -12" stroke="#999" stroke-width="1.3" fill="none" style=""></path></g><g class="divider" style=""><path d="M-97.046875 36 C-30.29469716675196 36, 36.45748066649608 36, 97.046875 36 M-97.046875 36 C-51.36759227142414 36, -5.688309542848273 36, 97.046875 36" stroke="#999" stroke-width="1.3" fill="none" style=""></path></g></g><g class="node default " id="classId-VoxelEditEvent-9" transform="translate(831.4765625, 274)"><g class="basic label-container"><path d="M-78.91796875 -72 L78.91796875 -72 L78.91796875 72 L-78.91796875 72" stroke="none" stroke-width="0" fill="#eee" style=""></path><path d="M-78.91796875 -72 C-19.317146107542897 -72, 40.28367653491421 -72, 78.91796875 -72 M-78.91796875 -72 C-27.602251757811132 -72, 23.713465234377736 -72, 78.91796875 -72 M78.91796875 -72 C78.91796875 -23.336497401588744, 78.91796875 25.327005196822512, 78.91796875 72 M78.91796875 -72 C78.91796875 -31.39635297776443, 78.91796875 9.20729404447114, 78.91796875 72 M78.91796875 72 C16.99466216319452 72, -44.92864442361096 72, -78.91796875 72 M78.91796875 72 C44.79236200890816 72, 10.666755267816313 72, -78.91796875 72 M-78.91796875 72 C-78.91796875 36.120169639355, -78.91796875 0.24033927870999605, -78.91796875 -72 M-78.91796875 72 C-78.91796875 25.39078439924117, -78.91796875 -21.21843120151766, -78.91796875 -72" stroke="#999" stroke-width="1.3" fill="none" style=""></path></g><g class="annotation-group text" transform="translate(0, -48)"></g><g class="label-group text" transform="translate(-56.3515625, -48)"><g class="label" style="font-weight: bolder" transform="translate(0,-12)"><foreignObject width="112.703125" height="24"><div xmlns="http://www.w3.org/1999/xhtml" style="display: table-cell; white-space: nowrap; line-height: 1.5; max-width: 151px; text-align: center;"><span class="nodeLabel markdown-node-label" style=""><p>VoxelEditEvent</p></span></div></foreignObject></g></g><g class="members-group text" transform="translate(-66.91796875, 0)"><g class="label" style="" transform="translate(0,-12)"><foreignObject width="56.203125" height="24"><div xmlns="http://www.w3.org/1999/xhtml" style="display: table-cell; white-space: nowrap; line-height: 1.5; max-width: 106px; text-align: center;"><span class="nodeLabel markdown-node-label" style=""><p>+sphere</p></span></div></foreignObject></g><g class="label" style="" transform="translate(0,12)"><foreignObject width="77.484375" height="24"><div xmlns="http://www.w3.org/1999/xhtml" style="display: table-cell; white-space: nowrap; line-height: 1.5; max-width: 124px; text-align: center;"><span class="nodeLabel markdown-node-label" style=""><p>+operation</p></span></div></foreignObject></g></g><g class="methods-group text" transform="translate(-66.91796875, 72)"></g><g class="divider" style=""><path d="M-78.91796875 -24 C-42.06989043258092 -24, -5.221812115161839 -24, 78.91796875 -24 M-78.91796875 -24 C-35.40886104787191 -24, 8.100246654256182 -24, 78.91796875 -24" stroke="#999" stroke-width="1.3" fill="none" style=""></path></g><g class="divider" style=""><path d="M-78.91796875 48 C-19.047110404608027 48, 40.823747940783946 48, 78.91796875 48 M-78.91796875 48 C-20.017757128165627 48, 38.882454493668746 48, 78.91796875 48" stroke="#999" stroke-width="1.3" fill="none" style=""></path></g></g><g class="node default " id="classId-MeshReady-10" transform="translate(1589.02734375, 80)"><g class="basic label-container"><path d="M-58.203125 -72 L58.203125 -72 L58.203125 72 L-58.203125 72" stroke="none" stroke-width="0" fill="#eee" style=""></path><path d="M-58.203125 -72 C-17.571976585381947 -72, 23.059171829236107 -72, 58.203125 -72 M-58.203125 -72 C-19.22556254310291 -72, 19.75199991379418 -72, 58.203125 -72 M58.203125 -72 C58.203125 -25.28288845189646, 58.203125 21.434223096207077, 58.203125 72 M58.203125 -72 C58.203125 -19.46561133396252, 58.203125 33.06877733207496, 58.203125 72 M58.203125 72 C29.74171895751956 72, 1.2803129150391186 72, -58.203125 72 M58.203125 72 C17.122141495589815 72, -23.95884200882037 72, -58.203125 72 M-58.203125 72 C-58.203125 43.13613037763932, -58.203125 14.27226075527863, -58.203125 -72 M-58.203125 72 C-58.203125 43.12535172204141, -58.203125 14.250703444082816, -58.203125 -72" stroke="#999" stroke-width="1.3" fill="none" style=""></path></g><g class="annotation-group text" transform="translate(0, -48)"></g><g class="label-group text" transform="translate(-41.40625, -48)"><g class="label" style="font-weight: bolder" transform="translate(0,-12)"><foreignObject width="82.8125" height="24"><div xmlns="http://www.w3.org/1999/xhtml" style="display: table-cell; white-space: nowrap; line-height: 1.5; max-width: 126px; text-align: center;"><span class="nodeLabel markdown-node-label" style=""><p>MeshReady</p></span></div></foreignObject></g></g><g class="members-group text" transform="translate(-46.203125, 0)"><g class="label" style="" transform="translate(0,-12)"><foreignObject width="51" height="24"><div xmlns="http://www.w3.org/1999/xhtml" style="display: table-cell; white-space: nowrap; line-height: 1.5; max-width: 100px; text-align: center;"><span class="nodeLabel markdown-node-label" style=""><p>+entity</p></span></div></foreignObject></g><g class="label" style="" transform="translate(0,12)"><foreignObject width="45.625" height="24"><div xmlns="http://www.w3.org/1999/xhtml" style="display: table-cell; white-space: nowrap; line-height: 1.5; max-width: 98px; text-align: center;"><span class="nodeLabel markdown-node-label" style=""><p>+mesh</p></span></div></foreignObject></g></g><g class="methods-group text" transform="translate(-46.203125, 72)"></g><g class="divider" style=""><path d="M-58.203125 -24 C-27.916714855343837 -24, 2.3696952893123253 -24, 58.203125 -24 M-58.203125 -24 C-16.214327764470738 -24, 25.774469471058524 -24, 58.203125 -24" stroke="#999" stroke-width="1.3" fill="none" style=""></path></g><g class="divider" style=""><path d="M-58.203125 48 C-22.14398076529205 48, 13.915163469415901 48, 58.203125 48 M-58.203125 48 C-17.429103698776842 48, 23.344917602446316 48, 58.203125 48" stroke="#999" stroke-width="1.3" fill="none" style=""></path></g></g><g class="node default " id="classId-SurfaceNetsMesherAdapter-11" transform="translate(1328.69921875, 274)"><g class="basic label-container"><path d="M-113.28125 -42 L113.28125 -42 L113.28125 42 L-113.28125 42" stroke="none" stroke-width="0" fill="#eee" style=""></path><path d="M-113.28125 -42 C-65.52374457493903 -42, -17.766239149878075 -42, 113.28125 -42 M-113.28125 -42 C-54.78658021450195 -42, 3.708089570996094 -42, 113.28125 -42 M113.28125 -42 C113.28125 -12.281431237752276, 113.28125 17.437137524495448, 113.28125 42 M113.28125 -42 C113.28125 -18.036880244984964, 113.28125 5.926239510030072, 113.28125 42 M113.28125 42 C62.6096801520366 42, 11.938110304073206 42, -113.28125 42 M113.28125 42 C44.26341377285736 42, -24.754422454285276 42, -113.28125 42 M-113.28125 42 C-113.28125 12.988130720116576, -113.28125 -16.023738559766848, -113.28125 -42 M-113.28125 42 C-113.28125 9.678054081606625, -113.28125 -22.64389183678675, -113.28125 -42" stroke="#999" stroke-width="1.3" fill="none" style=""></path></g><g class="annotation-group text" transform="translate(0, -18)"></g><g class="label-group text" transform="translate(-101.28125, -18)"><g class="label" style="font-weight: bolder" transform="translate(0,-12)"><foreignObject width="202.5625" height="24"><div xmlns="http://www.w3.org/1999/xhtml" style="display: table-cell; white-space: nowrap; line-height: 1.5; max-width: 228px; text-align: center;"><span class="nodeLabel markdown-node-label" style=""><p>SurfaceNetsMesherAdapter</p></span></div></foreignObject></g></g><g class="members-group text" transform="translate(-101.28125, 30)"></g><g class="methods-group text" transform="translate(-101.28125, 60)"></g><g class="divider" style=""><path d="M-113.28125 6 C-40.92827567589282 6, 31.42469864821436 6, 113.28125 6 M-113.28125 6 C-53.49724805553289 6, 6.286753888934214 6, 113.28125 6" stroke="#999" stroke-width="1.3" fill="none" style=""></path></g><g class="divider" style=""><path d="M-113.28125 24 C-38.03880909023967 24, 37.203631819520666 24, 113.28125 24 M-113.28125 24 C-58.85750185659299 24, -4.433753713185979 24, 113.28125 24" stroke="#999" stroke-width="1.3" fill="none" style=""></path></g></g><g class="node default " id="classId-WyRandGeneratorAdapter-12" transform="translate(1806.67578125, 80)"><g class="basic label-container"><path d="M-109.4453125 -42 L109.4453125 -42 L109.4453125 42 L-109.4453125 42" stroke="none" stroke-width="0" fill="#eee" style=""></path><path d="M-109.4453125 -42 C-50.751012786313616 -42, 7.9432869273727675 -42, 109.4453125 -42 M-109.4453125 -42 C-48.06809510250855 -42, 13.309122294982899 -42, 109.4453125 -42 M109.4453125 -42 C109.4453125 -13.97138988826708, 109.4453125 14.05722022346584, 109.4453125 42 M109.4453125 -42 C109.4453125 -16.690117118992674, 109.4453125 8.619765762014652, 109.4453125 42 M109.4453125 42 C37.06764338880319 42, -35.31002572239362 42, -109.4453125 42 M109.4453125 42 C44.653868988517786 42, -20.137574522964428 42, -109.4453125 42 M-109.4453125 42 C-109.4453125 22.643636973535873, -109.4453125 3.2872739470717462, -109.4453125 -42 M-109.4453125 42 C-109.4453125 8.87081408691801, -109.4453125 -24.25837182616398, -109.4453125 -42" stroke="#999" stroke-width="1.3" fill="none" style=""></path></g><g class="annotation-group text" transform="translate(0, -18)"></g><g class="label-group text" transform="translate(-97.4453125, -18)"><g class="label" style="font-weight: bolder" transform="translate(0,-12)"><foreignObject width="194.890625" height="24"><div xmlns="http://www.w3.org/1999/xhtml" style="display: table-cell; white-space: nowrap; line-height: 1.5; max-width: 221px; text-align: center;"><span class="nodeLabel markdown-node-label" style=""><p>WyRandGeneratorAdapter</p></span></div></foreignObject></g></g><g class="members-group text" transform="translate(-97.4453125, 30)"></g><g class="methods-group text" transform="translate(-97.4453125, 60)"></g><g class="divider" style=""><path d="M-109.4453125 6 C-46.96189586650524 6, 15.521520766989525 6, 109.4453125 6 M-109.4453125 6 C-53.85720419067212 6, 1.7309041186557579 6, 109.4453125 6" stroke="#999" stroke-width="1.3" fill="none" style=""></path></g><g class="divider" style=""><path d="M-109.4453125 24 C-54.45463483207837 24, 0.5360428358432614 24, 109.4453125 24 M-109.4453125 24 C-22.918660585579502 24, 63.607991328840995 24, 109.4453125 24" stroke="#999" stroke-width="1.3" fill="none" style=""></path></g></g></g></g></g></svg>